# xmcd CD database file
#
# Track frame offsets:
#	150
#	24208
#	45614
#	64551
#	84244
#	104321
#	127519
#	143116
#	165642
#	185251
#	205178
#	223804
#
# Disc length: 3256 seconds
#
# Revision: 0
# Processed by: cddbd v1.5.1PL2 Copyright (c) Steve Scherf et al.
# Submitted via: CDex 1.51
#
DISCID=940cb60c
DTITLE=レミオロメン - ether
DYEAR=2005
DGENRE=JPop
TTITLE0=春夏秋冬
TTITLE1=モラトリアム
TTITLE2=春景色
TTITLE3=アカシア
TTITLE4=永遠と一瞬
TTITLE5=深呼吸
TTITLE6=ドッグイヤー
TTITLE7=五月雨
TTITLE8=コスモス
TTITLE9=3月9日
TTITLE10=南風
TTITLE11=海のバラッド
EXTD=YEAR: 2005
EXTT0=
EXTT1=
EXTT2=
EXTT3=
EXTT4=
EXTT5=
EXTT6=
EXTT7=
EXTT8=
EXTT9=
EXTT10=
EXTT11=
PLAYORDER=
